<svg xmlns="http://www.w3.org/2000/svg" viewBox="0 0 27 41" width="28" height="42"><defs><style>.cls-1{isolation:isolate;opacity:0.04;}.cls-2{fill:url('#markerGrad');}</style><linearGradient id="markerGrad" x1="0" x2="0" y1="0" y2="1"><stop stop-color="#348F50" offset="0%"/><stop stop-color="#2f829d" offset="50%"/></linearGradient></defs><ellipse class="cls-1" cx="13.5" cy="34.8" rx="10.5" ry="5.25"/><ellipse class="cls-1" cx="13.5" cy="34.8" rx="10.5" ry="5.25"/><ellipse class="cls-1" cx="13.5" cy="34.8" rx="9.5" ry="4.77"/><ellipse class="cls-1" cx="13.5" cy="34.8" rx="8.5" ry="4.3"/><ellipse class="cls-1" cx="13.5" cy="34.8" rx="7.5" ry="3.82"/><ellipse class="cls-1" cx="13.5" cy="34.8" rx="6.5" ry="3.34"/><ellipse class="cls-1" cx="13.5" cy="34.8" rx="5.5" ry="2.86"/><ellipse class="cls-1" cx="13.5" cy="34.8" rx="4.5" ry="2.39"/><path class="cls-2" d="M13.5,0A13.49,13.49,0,0,0,0,13.48v0c0,5.72,6.75,13.5,12.25,21a1.42,1.42,0,0,0,1.92.58,1.47,1.47,0,0,0,.58-.58C20.25,27,27,19.07,27,13.5A13.49,13.49,0,0,0,13.52,0Zm0,19A5.5,5.5,0,1,1,19,13.5,5.5,5.5,0,0,1,13.5,19Z"/></svg>
